<?xml version="1.0"?>
<svg xmlns="http://www.w3.org/2000/svg" xmlns:xlink="http://www.w3.org/1999/xlink" xmlns:svgjs="http://svgjs.com/svgjs" version="1.1" width="512" height="512" x="0" y="0" viewBox="0 0 472 472.43457" style="enable-background:new 0 0 512 512" xml:space="preserve" class=""><g><path xmlns="http://www.w3.org/2000/svg" d="m8.191406 472.425781h305.5c2.042969.085938 4.03125-.679687 5.488282-2.113281 1.453124-1.4375 2.25-3.414062 2.191406-5.457031v-160.789063c0-.039062.15625-.074218.15625-.109375 0-.101562.070312-.203125.066406-.296875-.011719-.210937.011719-.417968-.011719-.625-.015625-.101562-.007812-.195312-.027343-.292968-.035157-.21875-.070313-.4375-.125-.652344-.019532-.078125-.035157-.15625-.054688-.234375-.082031-.285157-.175781-.5625-.285156-.835938l-.007813-.023437v-.007813l-.027343-.0625-25.355469-61.316406c-1.214844-3.042969-4.117188-5.078125-7.394531-5.183594h-33.933594v-73.03125c15-3.097656 28.457031-11.140625 40.742187-24.550781l3.039063 9.800781c1.3125 4.238281 5.796875 6.628907 10.046875 5.359375l54.652343-16.425781c4.230469-1.273437 6.632813-5.734375 5.359376-9.964844l-36.046876-119.917969c-1.273437-4.230468-5.734374-6.628906-9.964843-5.355468l-54.644531 16.425781c-4.230469 1.273437-6.628907 5.734375-5.355469 9.964844l1.644531 5.472656-11.308594 11.664063c-4.394531 4.644531-10.421875 7.398437-16.8125 7.679687l-69.90625 3.210937c-16.269531.714844-31.339844 8.761719-40.980468 21.886719l-97.394532 131.992188c-2.4375 3.304687-1.976562 7.917969 1.0625 10.675781 6.878906 6.226562 15.824219 9.671875 25.101563 9.664062 4.703125-.058593 9.363281-.9375 13.765625-2.601562v8.050781h-33.789063c-3.277343.105469-6.175781 2.140625-7.390625 5.183594l-25.355468 61.191406c-.011719.019531-.019532.097657-.027344.125v.039063c0 .007812 0 .03125-.007813.039062-.113281.277344-.207031.558594-.289062.84375-.019531.078125-.039063.160156-.058594.238282-.054687.214843-.101563.433593-.140625.65625-.015625.097656-.027344.195312-.042969.289062-.027343.207031-.042969.417969-.050781.628906 0 .101563.074219.199219.074219.300782 0 .035156.082031.074218.082031.109374v160.789063c-.019531 2.058594.804688 4.035156 2.28125 5.464844 1.480469 1.433593 3.480469 2.191406 5.535156 2.101562zm297.179688-16h-289v-144h289zm-222-241.304687 49.570312-43.953125c10.765625 5.699219 23.347656 6.90625 35 3.359375.339844-.101563.671875-.226563.992188-.375l26.476562-12.023438c7.632813-2.207031 15.65625-2.703125 23.5-1.460937l5.699219.941406c4.554687.730469 9.152344 1.144531 13.761719 1.238281v103.578125h-155zm235.773437-197.15625 31.441407 104.589844-39.3125 11.820312-31.449219-104.589844zm-273.808593 193.371094 92.375-125.191407c6.785156-9.234375 17.390624-14.898437 28.839843-15.398437l69.90625-3.21875c10.492188-.457032 20.394531-4.96875 27.621094-12.585938l5.039063-5.199218 20.679687 68.785156c-18.070313 23.53125-36.359375 31.453125-62.476563 27.277344l-5.886718-.941407c-10.402344-1.648437-21.042969-.933593-31.132813 2.082031-.34375.105469-.675781.230469-1 .378907l-26.472656 12.015625c-13.367187 3.761718-27.59375-1.902344-34.714844-13.820313l51.160157-18.960937c2.730468-.957032 4.730468-3.3125 5.234374-6.160156.503907-2.851563-.570312-5.75-2.808593-7.582032-2.238281-1.832031-5.292969-2.3125-7.988281-1.257812l-59.070313 21.898437c-3.957031 1.46875-6.09375 5.757813-4.878906 9.800781 1.992187 6.675782 5.460937 12.816407 10.148437 17.96875l-51.042968 45.152344c-.125.113282-.25.226563-.367188.34375-6.066406 6.105469-15.222656 7.925782-23.164062 4.613282zm-6.414063 39.089843h28.449219v16h-9.15625c-4.417969 0-8 3.582031-8 8 0 4.421875 3.582031 8 8 8h205.457031c4.417969 0 8-3.578125 8-8 0-4.417969-3.582031-8-8-8h-9.300781v-16h28.59375l18.746094 46h-281.535157zm0 0" fill="#d5ba4f" data-original="#000000" style=""/></g></svg>
