<?xml version="1.0"?>
<svg xmlns="http://www.w3.org/2000/svg" xmlns:xlink="http://www.w3.org/1999/xlink" xmlns:svgjs="http://svgjs.com/svgjs" version="1.1" width="512" height="512" x="0" y="0" viewBox="0 0 64 64" style="enable-background:new 0 0 512 512" xml:space="preserve"><g><g xmlns="http://www.w3.org/2000/svg" id="clipboard-pencil-copywriting-editing-writing"><path d="m61.83 23.99a4.969 4.969 0 0 0 -5.83-3.58v-17.41a1 1 0 0 0 -1-1h-46a1 1 0 0 0 -1 1v58a1 1 0 0 0 1 1h46a1 1 0 0 0 1-1v-23.98l1.83-3.17 2-3.46v-.01l1.5-2.59a4.955 4.955 0 0 0 .5-3.8zm-21.83-19.99h14v17.29a4.825 4.825 0 0 0 -1.33 1.5l-.67 1.16v-15.95a1 1 0 0 0 -1-1h-11zm-.33 41.3a1.021 1.021 0 0 0 -.13.57l.46 7.19a1.006 1.006 0 0 0 .5.81 1.023 1.023 0 0 0 .94.03l6.47-3.2a1.076 1.076 0 0 0 .42-.4l1.67-2.89v9.59h-36v-48h4v2a3.009 3.009 0 0 0 3 3h22a3.009 3.009 0 0 0 3-3v-2h4v18.41l-.83 1.44zm2.89 1 .47 1.76a1 1 0 0 0 1.23.71l1.76-.47.27.97-4.39 2.17-.31-4.88zm-16.56-42.3h12v3h-12zm18 5v2a1 1 0 0 1 -1 1h-22a1 1 0 0 1 -1-1v-2zm10 51h-44v-56h14v3h-11a1 1 0 0 0 -1 1v50a1 1 0 0 0 1 1h38a1 1 0 0 0 1-1v-14.05l2-3.47zm-6.2-12.79-.1-.4a.994.994 0 0 0 -1.23-.7l-1.76.47-.48-1.77a.988.988 0 0 0 -1.22-.7l-.4.1 7.79-13.49 5.2 3zm9.35-16.18-.55.95-5.2-3 1-1.73 5.2 3zm2.45-4.24-1 1.73-5.2-3 1-1.73a3 3 0 0 1 4.1-1.1 3 3 0 0 1 1.1 4.1z" fill="#d5ba4f" data-original="#000000" style=""/><path d="m17 17h30v2h-30z" fill="#d5ba4f" data-original="#000000" style=""/><path d="m27 22h20v2h-20z" fill="#d5ba4f" data-original="#000000" style=""/><path d="m17 22h8v2h-8z" fill="#d5ba4f" data-original="#000000" style=""/><path d="m17 27h10v2h-10z" fill="#d5ba4f" data-original="#000000" style=""/><path d="m29 27h18v2h-18z" fill="#d5ba4f" data-original="#000000" style=""/><path d="m17 32h27v2h-27z" fill="#d5ba4f" data-original="#000000" style=""/><path d="m27 37h15v2h-15z" fill="#d5ba4f" data-original="#000000" style=""/><path d="m17 37h8v2h-8z" fill="#d5ba4f" data-original="#000000" style=""/><path d="m17 42h10v2h-10z" fill="#d5ba4f" data-original="#000000" style=""/><path d="m29 42h10v2h-10z" fill="#d5ba4f" data-original="#000000" style=""/></g></g></svg>
